<svg width="3447" height="999" xmlns="http://www.w3.org/2000/svg" xmlns:xlink="http://www.w3.org/1999/xlink" xml:space="preserve" overflow="hidden"><defs><clipPath id="clip0"><rect x="338" y="1238" width="3447" height="999"/></clipPath><clipPath id="clip1"><rect x="497" y="1366" width="517" height="603"/></clipPath><clipPath id="clip2"><rect x="497" y="1366" width="517" height="603"/></clipPath></defs><g clip-path="url(#clip0)" transform="translate(-338 -1238)"><rect x="2979" y="1319" width="803" height="798" stroke="#000000" stroke-width="5.72917" stroke-miterlimit="8" fill="none"/><text font-family="Arial,Arial_MSFontService,sans-serif" font-weight="400" font-size="55" transform="matrix(1 0 0 1 3160.09 1405)">AWS Cloud</text><g><g><g><path d="M0 0 137 0 137 137 0 137Z" fill="#242F3E" fill-rule="evenodd" transform="matrix(1 0 0 1.0073 2979 1319)"/><path d="M111.991 81.8603C113.228 83.4667 110.621 90.0769 109.454 93.0361 109.097 93.9335 109.858 94.2862 110.652 93.6115 115.834 89.2138 117.177 79.9971 116.112 78.6682 115.06 77.3462 106.005 76.2125 100.483 80.1478 99.6306 80.7541 99.7779 81.5898 100.72 81.4802 103.83 81.0966 110.758 80.2574 111.991 81.8603L111.991 81.8603ZM109.108 88.7412C110.882 87.4465 109.361 85.5182 107.553 86.2752 95.5206 91.2894 82.4577 93.7177 70.5626 93.7177 52.9478 93.7177 35.8776 88.9604 22.0783 81.0623 20.8727 80.3705 19.9787 81.5932 20.9857 82.4803 33.7712 93.8376 50.677 100.664 69.4392 100.664 82.831 100.664 98.3839 96.5262 109.108 88.7412L109.108 88.7412ZM101.764 70.8798C100.059 70.8798 98.3908 70.6982 96.7673 70.3283 95.137 69.955 93.8903 69.5337 93.0238 69.0508 92.4929 68.7631 92.1607 68.4617 92.0271 68.1672 91.897 67.8658 91.8285 67.5712 91.8285 67.2767L91.8285 65.6703C91.8285 65.0059 92.0785 64.6668 92.5683 64.6668 92.7566 64.6668 92.9553 64.7113 93.1608 64.7798 93.3697 64.8586 93.6437 64.9682 93.9862 65.1155 95.0822 65.5984 96.2707 65.9649 97.5619 66.2252 98.8497 66.4821 100.134 66.6122 101.418 66.6122 103.463 66.6122 105.042 66.2629 106.159 65.5573 107.279 64.8586 107.834 63.8619 107.834 62.5673 107.834 61.6768 107.542 60.9404 106.953 60.3445 106.368 59.7485 105.278 59.2039 103.693 58.6833L98.9833 57.2414C96.5961 56.5016 94.8664 55.4296 93.7876 54.0288 92.7087 52.6176 92.171 51.0867 92.171 49.4153 92.171 48.0898 92.4621 46.9184 93.0546 45.8978 93.6369 44.8806 94.4075 44.014 95.3699 43.2914 96.346 42.5721 97.4729 42.031 98.7572 41.6542 100.038 41.2877 101.401 41.0994 102.84 41.0994 103.559 41.0994 104.289 41.1473 105.032 41.2398 105.768 41.3288 106.467 41.4521 107.128 41.5994 107.789 41.7535 108.405 41.9179 108.971 42.0995 109.539 42.2878 109.991 42.4728 110.337 42.6543 110.786 42.9112 111.104 43.1715 111.3 43.4318 111.488 43.6887 111.584 44.038 111.584 44.4867L111.584 45.98C111.584 46.6479 111.337 46.9767 110.841 46.9767 110.577 46.9767 110.166 46.8534 109.594 46.5931 107.744 45.7745 105.655 45.3738 103.357 45.3738 101.501 45.3738 100.059 45.6683 99.0381 46.2574 98.014 46.8534 97.5037 47.7952 97.5037 49.0899 97.5037 49.9735 97.8257 50.7236 98.473 51.3333 99.1169 51.9429 100.305 52.5252 102.049 53.0835L106.645 54.5288C108.991 55.2618 110.666 56.2824 111.666 57.5702 112.673 58.8683 113.177 60.3445 113.177 62.0056 113.177 63.379 112.892 64.6086 112.32 65.6977 111.752 66.7903 110.967 67.7185 109.96 68.496 108.96 69.2734 107.762 69.8625 106.361 70.2701 104.957 70.6811 103.426 70.8798 101.764 70.8798L101.764 70.8798ZM60.0992 70.0441C59.5307 70.0441 59.1163 69.9516 58.8491 69.7461 58.582 69.5372 58.3559 69.1262 58.1675 68.496L50.5572 43.9832C50.3756 43.353 50.2763 42.9317 50.2763 42.7125 50.2763 42.1954 50.5435 41.9351 51.0743 41.9351L54.2493 41.9351C54.8555 41.9351 55.2802 42.0378 55.5303 42.2433 55.7735 42.442 55.9892 42.853 56.1776 43.49L61.6268 64.451 66.6855 43.49C66.8362 42.853 67.0417 42.442 67.3054 42.2433 67.5692 42.0378 68.0041 41.9351 68.6069 41.9351L71.2271 41.9351C71.8264 41.9351 72.2614 42.0378 72.5286 42.2433 72.7923 42.442 73.0012 42.853 73.1519 43.49L78.2654 64.7285 83.8825 43.49C84.0708 42.853 84.2866 42.442 84.5332 42.2433 84.7832 42.0378 85.2045 41.9351 85.8107 41.9351L88.8179 41.9351C89.3522 41.9351 89.6159 42.1954 89.6159 42.7125 89.6159 42.853 89.5919 43.0242 89.5611 43.2057 89.5166 43.3975 89.4481 43.6544 89.3282 43.9832L81.4987 68.496C81.3103 69.1262 81.0808 69.5372 80.8137 69.7461 80.5499 69.9516 80.1321 70.0441 79.5669 70.0441L76.7824 70.0441C76.1796 70.0441 75.7447 69.9413 75.4809 69.7221 75.2172 69.4995 75.0083 69.0679 74.8576 68.4446L69.8023 48.0316 64.812 68.4446C64.6613 69.0679 64.449 69.4995 64.1853 69.7221 63.9181 69.9413 63.4866 70.0441 62.8803 70.0441L60.0992 70.0441ZM34.0418 66.6122C35.107 66.6122 36.2201 66.417 37.3949 66.03 38.5662 65.6395 39.5869 64.9682 40.4568 64.0024 40.9911 63.4133 41.3542 62.7385 41.5665 61.9782 41.772 61.2247 41.8714 60.3102 41.8714 59.2348L41.8714 57.9059C40.9329 57.6832 39.9397 57.5086 38.895 57.3784 37.8538 57.2517 36.8435 57.1832 35.8571 57.1832 33.7027 57.1832 32.0895 57.6079 31.0346 58.4607 29.9763 59.3101 29.442 60.526 29.442 62.1255 29.442 63.6016 29.8427 64.7148 30.6373 65.4751 31.4319 66.2355 32.569 66.6122 34.0418 66.6122L34.0418 66.6122ZM47.2144 61.7898C47.2144 62.9714 47.3342 63.9099 47.5808 64.6154 47.8309 65.321 48.1802 66.0813 48.6323 66.8896 48.783 67.1499 48.8584 67.3897 48.8584 67.6055 48.8584 67.9445 48.6494 68.2596 48.235 68.5508L46.1903 69.8865C45.8889 70.068 45.6046 70.1639 45.3409 70.1639 44.995 70.1639 44.6764 70.0167 44.375 69.7221 43.9161 69.2734 43.5325 68.7871 43.214 68.2494 42.8852 67.7151 42.5564 67.0883 42.2173 66.3862 39.6794 69.3077 36.5044 70.7702 32.6821 70.7702 29.9558 70.7702 27.798 70.0167 26.2054 68.496 24.6196 66.9821 23.825 64.9477 23.825 62.3995 23.825 59.704 24.808 57.5257 26.7808 55.8817 28.7433 54.2377 31.3977 53.4123 34.7234 53.4123 35.8228 53.4123 36.9668 53.4979 38.1587 53.6623 39.3471 53.8267 40.5904 54.063 41.8714 54.3576L41.8714 52.032C41.8714 49.6276 41.3679 47.9357 40.3438 46.9527 39.3232 45.9731 37.5661 45.4868 35.0693 45.4868 33.9288 45.4868 32.7643 45.6204 31.5724 45.8978 30.3839 46.1752 29.216 46.5348 28.0823 46.9767 27.5514 47.1993 27.1712 47.3397 26.9486 47.3945 26.7226 47.4493 26.5513 47.4767 26.4383 47.4767 25.9862 47.4767 25.7533 47.1479 25.7533 46.4766L25.7533 44.9285C25.7533 44.4079 25.8355 44.038 25.9862 43.8222 26.1369 43.5962 26.4383 43.3736 26.8938 43.1544 28.0275 42.5961 29.3906 42.1166 30.9764 41.7124 32.569 41.3049 34.2507 41.0994 36.0317 41.0994 39.8883 41.0994 42.7173 41.9659 44.5155 43.6784 46.3102 45.3977 47.2144 47.9939 47.2144 51.4703L47.2144 61.7898Z" fill="#FFFFFF" fill-rule="evenodd" transform="matrix(1 0 0 1.0073 2979 1319)"/></g></g></g><text fill="#181717" font-family="Arial,Arial_MSFontService,sans-serif" font-weight="400" font-size="83" transform="matrix(1 0 0 1 3067.05 1646)">Security group 1</text><text fill="#181717" font-family="Arial,Arial_MSFontService,sans-serif" font-weight="400" font-size="83" transform="matrix(1 0 0 1 3067.05 1745)">Security group 1</text><text fill="#181717" font-family="Arial,Arial_MSFontService,sans-serif" font-weight="400" font-size="83" transform="matrix(1 0 0 1 3067.05 1844)">…</text><text fill="#181717" font-family="Arial,Arial_MSFontService,sans-serif" font-weight="400" font-size="83" transform="matrix(1 0 0 1 3067.05 1943)">Security group N</text><rect x="1379.5" y="1528.5" width="1357" height="380" stroke="#6C6C6C" stroke-width="4.58333" stroke-miterlimit="8" fill="#FFFFFF"/><text fill="#181717" font-family="Arial,Arial_MSFontService,sans-serif" font-weight="400" font-size="83" transform="matrix(1 0 0 1 1412.47 1699)">1.</text><text fill="#181717" font-family="Arial,Arial_MSFontService,sans-serif" font-weight="400" font-size="83" transform="matrix(1 0 0 1 1536.22 1699)">Query all security groups</text><text fill="#181717" font-family="Arial,Arial_MSFontService,sans-serif" font-weight="400" font-size="83" transform="matrix(1 0 0 1 1412.47 1798)">2.</text><text fill="#181717" font-family="Arial,Arial_MSFontService,sans-serif" font-weight="400" font-size="83" transform="matrix(1 0 0 1 1536.22 1798)">Filter &amp; queried items to “plan”</text><text fill="#1F1F1F" font-family="Arial,Arial_MSFontService,sans-serif" font-weight="700" font-size="83" transform="matrix(1 0 0 1 464.837 1952)">$ terraform plan</text><g clip-path="url(#clip1)"><g clip-path="url(#clip2)"><g><path d="M588.747 266.782 537.355 266.782 537.355 236.084 674.949 236.084 674.949 266.782 623.557 266.782 623.557 420.273 588.747 420.273Z" transform="matrix(1.00279 0 0 1 497 1366)"/><path d="M711.312 395.285C725.254 395.219 739.114 393.079 752.425 388.935L757.679 414.334C741.772 420.076 724.98 422.983 708.068 422.922 665.812 422.922 651.149 403.279 651.149 370.936L651.149 335.305C651.149 306.845 663.848 282.816 706.972 282.816 750.095 282.816 759.78 307.941 759.78 336.949L759.78 365.729 685.227 365.729 685.227 372.627C685.227 388.935 690.846 395.285 711.312 395.285ZM685.227 338.639 728.077 338.639 728.077 331.97C728.077 319.27 724.194 310.454 707.611 310.454 691.029 310.454 685.227 319.27 685.227 331.97Z" transform="matrix(1.00279 0 0 1 497 1366)"/><path d="M850.047 313.743C837.658 319.343 825.726 325.911 814.37 333.386L814.37 420.273 780.657 420.273 780.657 285.557 809.116 285.557 811.355 300.495C822.305 293.06 834.196 287.115 846.712 282.816Z" transform="matrix(1.00279 0 0 1 497 1366)"/><path d="M932.366 313.743C919.995 319.353 908.081 325.921 896.734 333.386L896.734 420.273 863.021 420.273 863.021 285.557 891.481 285.557 893.673 300.495C904.642 293.06 916.546 287.116 929.077 282.816Z" transform="matrix(1.00279 0 0 1 497 1366)"/><path d="M1045.11 420.273 1017.47 420.273 1015 411.136C1003.07 418.873 989.162 422.998 974.941 423.014 950.319 423.014 939.812 406.157 939.812 382.951 939.812 355.542 951.735 345.08 979.053 345.08L1011.4 345.08 1011.4 330.873C1011.4 315.981 1007.28 310.728 985.722 310.728 973.178 310.859 960.675 312.236 948.4 314.839L944.243 289.166C959.272 285.004 974.786 282.868 990.382 282.816 1032.68 282.816 1045.2 297.708 1045.2 331.422ZM1011.4 369.292 986.727 369.292C975.672 369.292 972.612 372.352 972.612 382.585 972.612 391.722 975.672 396.29 986.316 396.29 995.224 396.147 1003.96 393.776 1011.72 389.392Z" transform="matrix(1.00279 0 0 1 497 1366)"/><path d="M1148.76 254.905C1142.4 253.508 1135.91 252.757 1129.39 252.666 1116.14 252.666 1114.23 258.468 1114.23 268.7L1114.23 285.557 1148.49 285.557 1146.61 312.372 1114.32 312.372 1114.32 420.273 1080.6 420.273 1080.6 312.372 1059.04 312.372 1059.04 285.557 1080.6 285.557 1080.6 266.782C1080.6 238.87 1093.58 225.029 1123.41 225.029 1133.21 224.993 1142.97 226.299 1152.42 228.912Z" transform="matrix(1.00279 0 0 1 497 1366)"/><path d="M1214.5 422.922C1168.36 422.922 1155.75 397.432 1155.75 370.023L1155.75 335.853C1155.75 308.444 1168.18 282.816 1214.31 282.816 1260.45 282.816 1272.92 308.215 1272.92 335.853L1272.92 370.023C1273.11 397.432 1260.82 422.922 1214.5 422.922ZM1214.5 311.55C1196.54 311.55 1189.65 319.544 1189.65 334.756L1189.65 370.936C1189.65 386.148 1196.54 394.188 1214.5 394.188 1232.45 394.188 1239.39 386.148 1239.39 370.936L1239.39 334.756C1239.39 319.773 1232.5 311.55 1214.5 311.55Z" transform="matrix(1.00279 0 0 1 497 1366)"/><path d="M1359.86 313.743C1347.49 319.353 1335.57 325.921 1324.22 333.386L1324.22 420.273 1290.51 420.273 1290.51 285.557 1318.97 285.557 1321.16 300.495C1332.19 293.055 1344.16 287.11 1356.75 282.816Z" transform="matrix(1.00279 0 0 1 497 1366)"/><path d="M1452.68 420.273 1452.68 326.168C1452.68 318.996 1449.62 315.387 1441.9 315.387 1434.18 315.387 1419.06 320.367 1406.82 326.762L1406.82 420.273 1373.06 420.273 1373.06 285.557 1398.78 285.557 1402.11 296.886C1418.9 288.51 1437.24 283.719 1455.97 282.816 1468.99 282.816 1476.98 288.07 1481.42 297.16 1498.24 288.57 1516.72 283.679 1535.59 282.816 1557.98 282.816 1565.97 298.531 1565.97 322.605L1565.97 420.273 1532.26 420.273 1532.26 326.168C1532.26 318.996 1529.2 315.387 1521.48 315.387 1509.12 316.679 1497.16 320.555 1486.39 326.762L1486.39 420.273Z" transform="matrix(1.00279 0 0 1 497 1366)"/><path d="M235.81 203.238 323.062 253.625 323.062 354.4 235.81 304.012 235.81 203.238Z" fill="#7B42BC" fill-rule="evenodd" transform="matrix(1.00279 0 0 1 497 1366)"/><path d="M332.609 253.625 332.609 354.4 419.907 304.012 419.907 203.238 332.609 253.625Z" fill="#7B42BC" fill-rule="evenodd" transform="matrix(1.00279 0 0 1 497 1366)"/><path d="M138.964 147.004 138.964 247.778 226.216 298.165 226.216 197.391 138.964 147.004Z" fill="#7B42BC" fill-rule="evenodd" transform="matrix(1.00279 0 0 1 497 1366)"/><path d="M235.81 415.842 323.062 466.229 323.062 366.094 323.062 365.455 235.81 315.067 235.81 415.842Z" fill="#7B42BC" fill-rule="evenodd" transform="matrix(1.00279 0 0 1 497 1366)"/><path d="M573.033 190.585 573.033 164.729 549.415 164.729 549.415 190.585 537.355 190.585 537.355 128.503 549.415 128.503 549.415 154.542 573.033 154.542 573.033 128.503 585.093 128.503 585.093 190.585ZM629.358 190.585 619.765 190.585 618.897 187.524C614.79 190.101 610.044 191.478 605.193 191.498 596.696 191.498 593.041 185.879 593.041 178.159 593.041 169.023 597.153 165.551 606.746 165.551L617.938 165.551 617.938 160.983C617.938 156.003 616.522 154.267 608.802 154.267 604.457 154.312 600.131 154.771 595.874 155.638L594.457 147.095C599.674 145.718 605.051 145.012 610.446 144.994 625.064 144.994 629.404 149.928 629.404 161.165ZM617.664 173.591 609.03 173.591C605.238 173.591 604.188 174.642 604.188 178.159 604.188 181.677 605.238 182.727 608.756 182.727 611.844 182.708 614.877 181.907 617.572 180.397ZM653.798 191.452C648.344 191.367 642.93 190.505 637.718 188.894L639.363 180.306C643.826 181.563 648.431 182.223 653.067 182.27 658.229 182.27 659.006 181.128 659.006 177.702 659.006 174.276 658.412 173.545 650.875 171.809 639.454 169.16 638.129 166.373 638.129 157.739 638.129 149.105 642.241 144.811 655.534 144.811 660.235 144.814 664.926 145.334 669.513 146.365L668.553 155.318C664.314 154.571 660.02 154.144 655.717 154.039 650.646 154.039 649.778 155.135 649.778 157.876 649.778 161.485 650.098 161.759 656.402 163.312 669.421 166.647 670.655 168.292 670.655 177.474 670.655 186.656 667.868 191.498 653.798 191.498ZM707.292 190.539 707.292 159.338C707.292 156.917 706.241 155.729 703.546 155.729 699.284 156.181 695.154 157.469 691.394 159.521L691.394 190.585 679.7 190.585 679.7 127.635 691.394 129.371 691.394 149.197C696.716 146.599 702.518 145.136 708.434 144.903 716.199 144.903 718.94 150.11 718.94 158.105L718.94 190.585ZM728.762 139.421 728.762 128.457 740.457 128.457 740.457 139.421ZM728.762 190.539 728.762 145.771 740.457 145.771 740.457 190.539ZM749.776 146.136C749.776 134.898 756.582 128.366 772.617 128.366 778.45 128.378 784.256 129.068 789.93 130.422L788.605 140.426C783.448 139.492 778.222 138.972 772.982 138.873 764.668 138.873 761.973 141.614 761.973 148.009L761.973 171.535C761.973 178.068 764.668 180.672 772.982 180.672 778.222 180.572 783.448 180.053 788.605 179.118L789.93 189.168C784.256 190.507 778.446 191.182 772.617 191.178 756.719 191.178 749.776 184.646 749.776 173.408ZM815.603 191.452C799.614 191.452 795.32 183.001 795.32 173.774L795.32 162.536C795.32 153.4 799.614 144.903 815.603 144.903 831.592 144.903 835.977 153.354 835.977 162.536L835.977 173.819C835.977 183.047 831.409 191.498 815.603 191.498ZM815.603 154.405C809.39 154.405 806.969 157.054 806.969 162.125L806.969 174.185C806.969 179.21 809.39 181.905 815.603 181.905 821.816 181.905 824.237 179.21 824.237 174.185L824.237 162.17C824.237 157.1 821.816 154.45 815.603 154.45ZM868.777 155.135C864.51 157.003 860.385 159.187 856.443 161.668L856.443 190.539 844.748 190.539 844.748 145.771 854.615 145.771 855.392 150.704C859.202 148.236 863.318 146.271 867.635 144.857ZM915.464 175.647C915.464 185.56 910.895 191.452 900.069 191.452 895.88 191.412 891.704 190.984 887.598 190.173L887.598 208.446 875.949 210.182 875.949 145.816 885.085 145.816 886.227 149.562C890.549 146.539 895.706 144.942 900.982 144.994 910.347 144.994 915.327 150.293 915.327 160.526ZM887.598 180.672C891.006 181.412 894.477 181.825 897.967 181.905 902.17 181.905 903.815 179.941 903.815 175.921L903.815 160.16C903.815 156.46 902.353 154.45 898.059 154.45 894.217 154.572 890.53 155.989 887.598 158.47Z" transform="matrix(1.00279 0 0 1 497 1366)"/></g></g></g><text fill="#1F1F1F" font-family="Arial,Arial_MSFontService,sans-serif" font-weight="700" font-size="83" transform="matrix(1 0 0 1 1639.29 2032)">aws</text><text fill="#1F1F1F" font-family="Arial,Arial_MSFontService,sans-serif" font-weight="700" font-size="83" transform="matrix(1 0 0 1 1795.12 2032)">-</text><text fill="#1F1F1F" font-family="Arial,Arial_MSFontService,sans-serif" font-weight="700" font-size="83" transform="matrix(1 0 0 1 1822.62 2032)">terraform</text><text fill="#1F1F1F" font-family="Arial,Arial_MSFontService,sans-serif" font-weight="700" font-size="83" transform="matrix(1 0 0 1 2189.29 2032)">-</text><text fill="#1F1F1F" font-family="Arial,Arial_MSFontService,sans-serif" font-weight="700" font-size="83" transform="matrix(1 0 0 1 2216.79 2032)">boost</text><path d="M1124.5 1727.5 1176.5 1675.5 1176.5 1701.5 1248.5 1701.5 1248.5 1675.5 1300.5 1727.5 1248.5 1779.5 1248.5 1753.5 1176.5 1753.5 1176.5 1779.5Z" stroke="#181717" stroke-width="4.58333" stroke-miterlimit="8" fill="#181717" fill-rule="evenodd"/><path d="M2872 1238 2872 2229.72" stroke="#BFBFBF" stroke-width="13.75" stroke-miterlimit="8" fill="none" fill-rule="evenodd"/><path d="M2779.5 1727.5 2831.5 1675.5 2831.5 1701.5 2902.5 1701.5 2902.5 1675.5 2954.5 1727.5 2902.5 1779.5 2902.5 1753.5 2831.5 1753.5 2831.5 1779.5Z" stroke="#181717" stroke-width="4.58333" stroke-miterlimit="8" fill="#181717" fill-rule="evenodd"/></g></svg>